<?xml version="1.0" encoding="UTF-8" standalone="no"?>
<!-- Created using Krita: https://krita.org -->

<svg
   width="679.68pt"
   height="331.92pt"
   viewBox="0 0 679.68 331.92"
   version="1.1"
   id="svg1"
   sodipodi:docname="c.svg"
   inkscape:version="1.4.4 (dcaf3e7, 2026-05-05)"
   xmlns:inkscape="http://www.inkscape.org/namespaces/inkscape"
   xmlns:sodipodi="http://sodipodi.sourceforge.net/DTD/sodipodi-0.dtd"
   xmlns="http://www.w3.org/2000/svg"
   xmlns:svg="http://www.w3.org/2000/svg">
  <sodipodi:namedview
     id="namedview1"
     pagecolor="#ffffff"
     bordercolor="#000000"
     borderopacity="0.25"
     inkscape:showpageshadow="2"
     inkscape:pageopacity="0.0"
     inkscape:pagecheckerboard="0"
     inkscape:deskcolor="#d1d1d1"
     inkscape:document-units="pt"
     inkscape:zoom="1.8234815"
     inkscape:cx="452.15704"
     inkscape:cy="300.24983"
     inkscape:window-width="1920"
     inkscape:window-height="1009"
     inkscape:window-x="-8"
     inkscape:window-y="-8"
     inkscape:window-maximized="1"
     inkscape:current-layer="svg1" />
  <defs
     id="defs1" />
  <path
     id="shape2"
     fill="#aa3557"
     fill-rule="evenodd"
     stroke-opacity="0"
     stroke="#000000"
     stroke-width="0"
     stroke-linecap="square"
     stroke-linejoin="bevel"
     d="m 524.92453,3.1467739 c -18.74232,4.75272 -38.0412,31.8751421 -43.42464,61.0279421 -0.61632,3.33576 -0.5364,3.34152 -4.11768,-0.27648 -22.51512,-22.7412 -62.67384,12.303 -40.84272,35.64108 5.0364,5.383444 5.08392,5.575684 1.7748,7.153204 -6.30864,3.00888 -11.4696,9.94391 -14.43672,19.40183 -2.52186,4.9192 -23.01506,-10.30318 -25.60896,-16.08047 3.16421,-8.93309 5.76966,-17.724791 5.85288,-27.180004 l -10.0116,-10.74492 c -19.16568,-20.56896 -30.67056,-24.56424 -46.39824,-16.10928 -12.5388,6.73992 -22.24224,34.41564 -26.79192,76.414674 -0.67536,6.23448 -0.702,6.2532 -4.2372,2.99448 -17.12582,-15.78376 -34.05695,-0.49649 -40.18824,-2.74032 -2.40912,-0.882 -9.81936,-1.6308 -16.71192,-1.6884 -5.90832,-0.0497 14.36112,-13.01184 21.03192,-13.45032 9.396,-0.61704 10.77912,-2.0376 10.00368,-10.27439 -0.95976,-10.192324 -3.37824,-13.962964 -19.74456,-30.787924 -51.09674,-46.509801 -88.6487,36.321724 -87.01056,63.146874 -11.27968,-16.38221 -17.30588,-50.694635 -44.14824,-53.015754 -7.05168,0.66384 -21.25728,4.01112 -28.32264,6.67296 -50.307259,18.953274 -75.932779,50.176074 -66.700939,81.272154 2.18808,7.37208 40.990464,46.82376 40.990464,47.39184 0,1.44504 -5.71752,12.7188 -6.45048,12.7188 -0.33048,0 -4.927104,-4.39992 -10.215504,-9.7776 -32.7276,-33.28128 -77.7996,-3.66624 -63.3203925,41.60592 18.7011875,31.02671 39.5464295,57.09914 78.8394165,48.87144 6.30288,-1.51272 7.96896,-2.10744 15.209995,-5.4288 26.04568,-13.8308 41.15061,-47.05389 44.97696,-75.61728 0,-2.08512 1.00008,-0.66168 4.9212,7.0092 4.02761,9.60605 13.0335,17.0691 19.28016,22.21848 14.99833,9.03031 29.5272,18.51192 45.63864,8.17128 14.37499,-12.30812 6.18064,-31.82575 10.08864,-36.53352 0.25632,-0.30888 3.43656,2.44512 7.06824,6.12 7.94567,7.7552 12.9495,15.14553 24.56136,17.01 10.9836,2.09304 21.79008,-1.4436 30.1536,-9.86832 l 5.27184,-5.31072 1.92816,1.782 c 8.73576,8.07552 23.58072,8.74224 36.74088,1.65096 4.38264,-2.3616 7.30728,-2.45448 7.30728,-0.23112 40.10186,30.4432 124.67496,55.20069 127.13328,6.91128 0.56232,-11.04264 1.24848,-16.58376 -5.382,-23.6916 -5.70024,-6.11136 -5.70888,-6.16248 -0.86184,-4.92048 10.06848,2.58048 28.39032,-4.96944 35.7084,-14.71536 1.836,-2.4444 2.05488,-2.41344 6.02208,0.86112 12.30192,10.15344 30.52224,6.13296 44.02008,-9.71352 3.8484,-4.518 3.90816,-4.52952 7.16976,-1.38384 11.83536,11.41344 31.9896,9.84744 44.6832,-3.47112 3.80304,-3.99024 3.40848,-3.96648 8.00424,-0.48744 20.39832,15.43824 57.60936,-9.57528 60.09912,-40.3992 l 0.4248,-5.26176 c -5.98,-8.31359 -13.6143,-15.27489 -20.53152,-22.81824 2.05914,-6.70788 2.40292,-13.63634 2.39076,-20.58407 -13.66336,-18.491298 -26.62891,-37.032939 -52.5132,-26.938804 -9.57331,4.203596 -18.67292,-1.618977 -18.39168,-2.664 4.49059,-16.685902 -7.69506,-84.8464218 -50.93208,-73.8824621"
     sodipodi:nodetypes="cccccccccccccccccccccccccccccccccccccccscccccccccccccsc"
     style="fill:#6d0927;fill-opacity:1" />
  <path
     d="m 234.61645,67.380523 c -14.9508,4.01976 -26.2692,16.34364 -35.29296,38.432517 -11.21286,27.44754 -15.01013,91.10894 -15.55272,101.35367 -0.26712,5.05728 -0.57888,9.10152 -0.69264,8.98776 -0.11376,-0.11304 -2.63592,-9.75888 -5.6052,-21.43368 C 167.94821,169.97585 164.08114,86.510323 126.62905,95.508403 87.709447,105.69424 59.240507,126.63111 50.941067,151.17303 c -6.678,19.74528 3.21912,38.0736 20.59488,38.1384 12.11486,0.0454 23.61326,-7.29936 17.9195,-11.44584 -15.82179,-11.52032 -17.81622,-44.03601 27.156963,-66.71159 -10.56165,40.95892 -5.9058,139.98914 -59.683823,150.52319 -17.74008,-0.0828 -19.54728,-27.7812 -2.29608,-35.20296 4.25808,-1.83096 4.41432,-2.63808 1.03608,-5.33376 -18.684,-14.90832 -46.1289495,3.0744 -45.9575895,30.11256 0.2196,34.686 34.4059095,50.66784 69.0250895,32.26896 37.860023,-24.41281 47.621543,-95.08118 49.393443,-139.8636 0.40661,-22.08033 15.71506,128.19747 55.50048,106.52832 10.1661,-4.96664 12.18205,-27.75035 14.35578,-39.67372 5.05368,-51.66389 32.73942,-119.124427 62.1003,-118.971787 l 4.95072,0.0259 -0.3564,-4.44096 c -1.16712,-14.54004 -15.18336,-23.74596 -30.06432,-19.74564"
     style="fill:#fff6d5;fill-opacity:1;fill-rule:evenodd;stroke:#000000;stroke-width:0;stroke-linecap:square;stroke-linejoin:bevel;stroke-opacity:0"
     id="path1" />
  <path
     d="M 523.6825,9.8261782 C 493.51559,24.821427 485.90069,68.403404 483.06478,87.596794 c -0.50182,2.142016 -6.28349,9.894389 -8.96423,3.246982 14.36716,-32.144713 -23.05708,-34.757644 -34.41722,-18.857634 -11.27984,15.78762 6.41546,37.629238 24.31621,25.56952 1.50459,1.22871 11.4513,7.467258 15.92424,9.122408 l -0.50184,3.68928 c -2.06342,15.53878 -2.24996,31.24196 -2.7432,46.88855 -20.5256,41.93294 -27.94541,17.37343 -11.97144,-34.40808 2.89944,-9.39816 1.20312,-12.62735 -7.2648,-13.82903 -14.56272,-2.06784 -24.72264,6.28631 -28.89144,23.75711 -3.43515,14.3959 -13.50271,15.5746 -13.35024,15.17688 0.70344,-1.83168 -2.2212,-13.93632 -4.28112,-17.72064 -10.52352,-19.33559 -36.33264,-17.74656 -48.94344,3.0132 -3.27888,5.3964 -3.41496,5.2092 -1.66608,-2.28744 0.78264,-3.35592 2.18952,-9.666 3.12624,-14.022 1.89288,-8.80199 8.3016,-31.659118 10.5984,-37.799998 0.81432,-2.178 2.3004,-5.9742 3.30264,-8.4366 3.03696,-7.46496 -1.50696,-11.15568 -14.292,-11.60712 -15.85368,-0.56016 -21.52944,6.1632 -28.74168,34.04412 -9.10921,35.226598 -10.59602,88.608178 -11.89008,91.119598 -4.05802,6.90787 -6.65313,16.61635 -13.94712,20.85336 -19.22106,7.96153 8.18076,-61.95199 1.19592,-67.16736 -13.86137,-10.35237 -28.78257,5.2664 -30.582,3.68928 -9.7308,-8.53632 -29.66544,-3.6 -43.55352,10.78488 -25.506,26.4204 -24.16248,74.85552 2.23128,80.44056 1.55592,0.32976 5.1372,0.39024 7.60176,0.14328 13.56895,-1.70014 21.14707,-13.01619 26.79408,-24.21864 9.18561,29.15148 36.62538,16.49851 49.11336,-2.85696 1.87488,-2.90664 2.97504,-4.08816 2.97504,-3.19536 0.7989,5.82507 2.31267,11.82788 5.7564,16.6644 -3.11885,0.71005 -6.28898,1.3812 -9.00216,3.15576 -5.0076,3.93912 -5.35752,11.72088 -0.4428,9.83808 3.96,-1.51632 10.4508,0.0943 19.95624,4.95288 38.47464,19.66608 69.4728,23.1156 88.49232,9.84672 12.95496,-9.03744 16.2648,-23.17608 8.03304,-34.31088 -1.836,-2.48328 -3.35304,-2.55384 -3.35304,-0.15624 0,23.30856 -45.70488,31.5468 -82.8,14.92416 -2.574,-1.15344 -5.73264,-2.55672 -7.02,-3.11832 -2.4696,-1.07784 -2.97733,-0.67005 -1.2492,-2.1096 1.59592,-1.29101 3.78072,-4.27104 4.72464,-11.67768 0.7956,-6.24168 1.044,-7.03152 1.84464,-5.86728 16.59744,24.1308 57.60648,-2.4048 65.39688,-42.31584 5.31755,-5.74928 11.05794,-14.47764 9.64512,-0.18648 -3.97004,38.99593 27.09394,54.38132 54.6084,11.00664 2.41857,8.64308 18.01206,39.88563 50.41296,-9.28944 12.20148,28.77662 39.70535,18.5135 49.99392,-2.84904 1.17072,-2.43072 2.04984,-3.5604 2.25792,-2.90088 0.1872,0.594 0.71064,2.44512 1.16352,4.11336 2.92392,10.77552 20.124,15.44616 30.90384,8.39232 18.33461,-11.99954 31.44644,-40.09876 22.02696,-42.46272 -2.24712,-0.56376 -2.92968,-0.0209 -3.95568,3.14712 -1.17216,3.61728 -4.69584,10.5984 -7.35408,14.56992 -14.63688,21.86712 -17.79768,-1.65672 -5.90184,-43.91999 3.79008,-13.464008 3.69792,-14.078168 -2.58336,-17.323928 -12.81783,-6.62376 -24.62288,4.67837 -26.1864,6.26472 -27.48248,-18.54599 -60.54272,17.555168 -62.76168,51.191278 -0.49104,7.43688 -1.0728,9.24624 -5.40648,16.8012 -14.11848,24.61104 -17.52768,-2.67984 -7.36848,-58.98167 26.97016,-13.799678 64.49425,-99.44613493 9.6084,-90.3013328 m 9.67032,14.7700848 c -2.68344,3.17592 -5.09184,8.7912 -7.64352,17.82 -2.53152,8.9568 -8.64504,37.30212 -8.35128,38.7198 0.57312,2.76984 10.83024,-9.69012 15.40008,-18.70956 9.50904,-18.76536 9.98352,-48.941285 0.59472,-37.83024 m 40.3002,75.400924 c -13.34088,5.394244 -20.82312,58.338714 -8.244,58.338714 7.57368,0 16.58304,-25.812 16.58664,-47.51999 10e-4,-10.098 -2.40552,-13.219208 -8.34264,-10.818724 m -201.3984,37.298154 c -9.04176,5.53248 -20.04048,44.38152 -16.19712,57.20904 8.45393,16.49884 18.93565,-10.72932 22.3884,-16.5744 0.58536,-0.73656 0.144,-0.8316 -2.15928,-0.46296 -7.99056,1.27728 -6.65424,-8.45856 1.59336,-11.60856 3.81384,-1.45656 3.94056,-1.87272 3.94848,-12.92256 0.0101,-14.8176 -2.96856,-19.68336 -9.57384,-15.64056 m -107.44848,14.1336 c -8.25408,3.59496 -14.32152,20.67336 -14.34816,40.38696 -0.0902,65.63308 40.20784,-51.65113 14.34816,-40.38696"
     style="fill:#fff6d5;fill-opacity:1;fill-rule:evenodd;stroke:#000000;stroke-width:0;stroke-linecap:square;stroke-linejoin:bevel;stroke-opacity:0"
     id="path1-4"
     sodipodi:nodetypes="cccsccccccscccccccccccccccccccccccccssccccccccsccsccccccccccccccccscccsccsccccc" />
</svg>
